<svg xmlns="http://www.w3.org/2000/svg" viewBox="0 0 100 100" width="512" height="512">
  <!-- White background -->
  <circle cx="50" cy="50" r="45" fill="white" stroke="#333" stroke-width="2"/>

  <!-- Orange 25-minute wedge (from 12 o'clock, 150 degrees) -->
  <path d="M 50 50 L 50 8 A 42 42 0 0 1 86.3 71 Z" fill="#ff6b35" stroke="#333" stroke-width="1"/>

  <!-- 15-minute marks (stroke-width 2.5) -->
  <line x1="50" y1="8" x2="50" y2="18" stroke="#333" stroke-width="2.5"/>
  <line x1="92" y1="50" x2="82" y2="50" stroke="#333" stroke-width="2.5"/>
  <line x1="50" y1="92" x2="50" y2="82" stroke="#333" stroke-width="2.5"/>
  <line x1="8" y1="50" x2="18" y2="50" stroke="#333" stroke-width="2.5"/>

  <!-- 5-minute marks (stroke-width 1.5) -->
  <line x1="67" y1="11" x2="64" y2="18" stroke="#333" stroke-width="1.5"/>
  <line x1="82" y1="26" x2="76" y2="31" stroke="#333" stroke-width="1.5"/>
  <line x1="89" y1="67" x2="82" y2="64" stroke="#333" stroke-width="1.5"/>
  <line x1="74" y1="82" x2="69" y2="76" stroke="#333" stroke-width="1.5"/>
  <line x1="33" y1="89" x2="36" y2="82" stroke="#333" stroke-width="1.5"/>
  <line x1="18" y1="74" x2="24" y2="69" stroke="#333" stroke-width="1.5"/>
  <line x1="11" y1="33" x2="18" y2="36" stroke="#333" stroke-width="1.5"/>
  <line x1="26" y1="18" x2="31" y2="24" stroke="#333" stroke-width="1.5"/>

  <!-- Center dot -->
  <circle cx="50" cy="50" r="2" fill="#333"/>
</svg>
